<svg xmlns="http://www.w3.org/2000/svg" width="104" height="56" fill="none">
  <path fill="#8E8F99" d="M26.8 44.37c.24.28.37.62.36.97.01.23-.03.46-.13.67-.1.21-.25.4-.44.55-.48.33-1.07.49-1.66.45H22v-6.13h2.87c.56-.04 1.12.1 1.58.4.19.14.33.32.43.52.1.2.14.41.13.63.01.34-.1.67-.33.94-.23.24-.53.41-.88.48.4.06.74.25 1 .52Zm-3.44-.92h1.23c.27.02.55-.06.77-.2.1-.08.17-.17.21-.28.05-.1.07-.21.06-.33a.69.69 0 0 0-.06-.32.75.75 0 0 0-.2-.27 1.28 1.28 0 0 0-.8-.21h-1.2v1.6Zm2.12 2.35c.1-.08.18-.17.23-.28a.7.7 0 0 0 .06-.34.7.7 0 0 0-.06-.35.78.78 0 0 0-.23-.28 1.37 1.37 0 0 0-.83-.22h-1.29V46h1.3c.3.02.58-.06.82-.21ZM32.65 47l-1.6-2.39h-.6v2.4h-1.37v-6.13h2.6c.65-.04 1.3.14 1.8.52.37.33.59.77.62 1.23.04.47-.11.93-.42 1.3-.32.34-.76.56-1.24.63l1.7 2.45h-1.5Zm-2.2-3.22h1.13c.78 0 1.17-.31 1.17-.93a.83.83 0 0 0-.07-.37.9.9 0 0 0-.22-.32 1.3 1.3 0 0 0-.88-.25h-1.14l.02 1.87ZM40.14 45.78h-2.73L36.93 47h-1.44L38 40.95h1.55l2.5 6.06h-1.43l-.48-1.23Zm-.36-.93-1-2.6-1 2.6h2ZM49.52 47h-1.36l-3.05-4.16V47h-1.36v-6.13h1.36l3.05 4.2v-4.2h1.36V47ZM57.29 45.54c-.28.46-.71.84-1.23 1.08-.6.27-1.25.4-1.91.39h-2.43v-6.13h2.43c.66-.02 1.31.11 1.9.37.53.24.96.61 1.24 1.07a3.28 3.28 0 0 1 0 3.22Zm-1.56-.15c.4-.4.6-.92.6-1.46 0-.54-.2-1.05-.6-1.46a2.54 2.54 0 0 0-1.7-.52h-.95v3.97h.95c.62.03 1.23-.16 1.7-.53ZM41 6.77s17.56 5.97 17.19 14.6V36S40.64 30.02 41 21.38V6.77ZM73.84 32.57A25.77 25.77 0 0 1 85 28.87v-4.58a22.54 22.54 0 0 0-11.16 8.28Z"/>
  <path fill="#8E8F99" d="M71.85 33.95A23.19 23.19 0 0 1 85 23.33V10.15s-25.02 8.5-24.49 20.81v20.8s1.12-.37 2.87-1.09c0-.66 0-1.33.08-2 .52-5.72 3.53-11.01 8.39-14.72Z"/>
  <path fill="#8E8F99" d="M69.47 41.68c.13-1.45.42-2.87.87-4.26a19.1 19.1 0 0 0-5.3 12.56 75.86 75.86 0 0 0 4.82-2.28 19.43 19.43 0 0 1-.4-6.02ZM70.46 41.75c-.17 1.82-.06 3.66.31 5.46C77.61 43.53 85.3 37.84 85 30.96v-.6c-4.88.5-9.45 2.42-13 5.47a18.82 18.82 0 0 0-1.53 5.92Z"/>
</svg>
