<svg xmlns="http://www.w3.org/2000/svg" width="104" height="56" fill="none">
  <path fill="#8E8F99" d="m36.81 49.22.05.01.04.03.22.2c-.18.17-.39.3-.62.4-.28.1-.58.15-.89.14-.28 0-.56-.04-.82-.13a1.67 1.67 0 0 1-1.03-.95 1.89 1.89 0 0 1 .01-1.48c.1-.21.24-.41.43-.58.19-.16.41-.29.66-.37a2.64 2.64 0 0 1 1.65-.01c.21.08.42.2.59.33l-.19.22a.18.18 0 0 1-.04.04.13.13 0 0 1-.08.02.18.18 0 0 1-.08-.03l-.1-.05-.13-.08a1.6 1.6 0 0 0-.77-.16c-.2 0-.42.04-.61.1a1.28 1.28 0 0 0-.8.72c-.07.2-.11.4-.1.6a1.3 1.3 0 0 0 .88 1.3c.17.06.36.1.56.1l.34-.02a1.35 1.35 0 0 0 .72-.3.17.17 0 0 1 .11-.05ZM43.19 48.18c0 .25-.05.5-.15.73-.1.22-.23.41-.42.57-.18.17-.4.3-.65.38-.54.17-1.14.17-1.68 0a1.94 1.94 0 0 1-.65-.38 1.67 1.67 0 0 1-.42-.57c-.2-.48-.2-1 0-1.47.1-.22.24-.41.42-.58.19-.16.4-.28.65-.36a2.69 2.69 0 0 1 1.68 0c.24.08.47.21.65.37a1.69 1.69 0 0 1 .57 1.31Zm-.58 0c0-.2-.03-.4-.1-.59a1.21 1.21 0 0 0-.77-.72c-.4-.13-.83-.13-1.22 0-.18.06-.34.16-.47.28-.13.13-.23.28-.3.44-.14.38-.14.8 0 1.18a1.2 1.2 0 0 0 .77.72c.4.12.83.12 1.22 0a1.23 1.23 0 0 0 .76-.72c.08-.19.11-.39.1-.59ZM47.54 48.8l.05.13.07-.13.07-.13 1.41-2.2.08-.06a.39.39 0 0 1 .12-.01h.41v3.56h-.5v-2.85l-1.41 2.22a.2.2 0 0 1-.08.08.25.25 0 0 1-.12.03h-.08a.25.25 0 0 1-.13-.03.2.2 0 0 1-.08-.08l-1.46-2.24V49.95h-.48V46.4h.42l.12.01c.03.01.06.04.07.07l1.44 2.2c.03.03.06.07.08.12ZM52.84 48.62v1.34h-.55V46.4h1.23c.24 0 .47.02.7.08.17.04.34.11.48.22.12.1.21.21.27.35.07.14.1.3.1.45a1 1 0 0 1-.4.81c-.15.11-.31.19-.5.24-.2.06-.43.09-.66.08h-.67Zm0-.38h.67c.15 0 .3-.02.43-.05a.94.94 0 0 0 .31-.16.67.67 0 0 0 .25-.54.6.6 0 0 0-.05-.28.69.69 0 0 0-.2-.25 1.2 1.2 0 0 0-.74-.19h-.67v1.47ZM60.26 49.96h-.43a.21.21 0 0 1-.12-.03.22.22 0 0 1-.07-.08l-.38-.87h-1.89l-.38.87a.2.2 0 0 1-.07.08.21.21 0 0 1-.13.03h-.43L58 46.4h.58l1.67 3.56Zm-2.73-1.32h1.56l-.66-1.45c-.05-.11-.09-.22-.12-.34l-.07.19-.06.15-.65 1.45ZM62.65 46.41l.08.07 2.42 2.68V46.4h.5v3.56h-.28c-.04 0-.08 0-.12-.02a.3.3 0 0 1-.09-.07l-2.4-2.68v2.77h-.5V46.4h.29l.1.01ZM69.71 48.54v1.42h-.55v-1.42l-1.53-2.14h.5a.2.2 0 0 1 .11.03l.08.08.95 1.38a2.14 2.14 0 0 1 .17.32l.07-.15.1-.17.94-1.4a.38.38 0 0 1 .07-.07.19.19 0 0 1 .12-.03h.5l-1.53 2.15ZM47.26 40.42l.73.06a20.16 20.16 0 0 0 9.06-6.7 15.86 15.86 0 0 0 3.22-9.86l-4.1-3.5a17.6 17.6 0 0 1-1.13 11.08 20.97 20.97 0 0 1-7.78 8.92Z"/>
  <path fill="#8E8F99" d="m45.8 40.25.1.02c3.76-2.29 6.62-5.49 8.22-9.18 1.6-3.7 1.86-7.72.75-11.54l-5.84-5c2.36 4.1 3.31 8.7 2.74 13.25a22.42 22.42 0 0 1-5.97 12.45ZM65.63 28.04c-1 3.83-3.41 7.29-6.88 9.85-1.02.75-2.11 1.43-3.27 2a20.31 20.31 0 0 0 7.6-3.66A16.62 16.62 0 0 0 68 30.07l-2.37-2.03Z"/>
  <path fill="#8E8F99" d="m64.7 27.48-3.38-2.89a16.5 16.5 0 0 1-3.17 9.31 20.56 20.56 0 0 1-8.26 6.64h.01c.76 0 1.52-.03 2.27-.11a20.91 20.91 0 0 0 8.17-5.13 16.8 16.8 0 0 0 4.35-7.82ZM46.29 12.45 42.26 9a18.99 18.99 0 0 0-8.89 6A14.78 14.78 0 0 0 30 24.23a14.94 14.94 0 0 0 4.08 10.05c2.63 2.87 6.3 4.9 10.44 5.79 3.7-3.85 5.86-8.6 6.18-13.57.31-4.96-1.23-9.89-4.41-14.05ZM74 26.95c-.01-4.33-2.03-8.47-5.6-11.53a20.92 20.92 0 0 0-13.5-4.79c-2.33 0-4.65.37-6.83 1.09l24.65 21.07A14.09 14.09 0 0 0 74 26.95Z"/>
</svg>
