<svg xmlns="http://www.w3.org/2000/svg" aria-hidden="true" style="position:absolute;width:0;height:0;overflow:hidden">
  <defs>
    <symbol id="twitter-1" viewBox="0 0 32 32">
      <path fill="#f4f4fd" d="M32 6.08c-1.19.52-2.46.87-3.78 1.03a6.52 6.52 0 0 0 2.89-3.62 13.11 13.11 0 0 1-4.16 1.59 6.57 6.57 0 0 0-11.2 5.98A18.57 18.57 0 0 1 2.23 4.2a6.57 6.57 0 0 0 2.02 8.77 6.48 6.48 0 0 1-2.97-.81v.07a6.59 6.59 0 0 0 5.26 6.44 6.55 6.55 0 0 1-2.97.1 6.62 6.62 0 0 0 6.13 4.58 13.18 13.18 0 0 1-9.7 2.7A18.47 18.47 0 0 0 10.06 29c12.08 0 18.68-10 18.68-18.67 0-.29-.01-.57-.03-.85 1.3-.92 2.4-2.07 3.29-3.4z" style="fill:var(--color1, #f4f4fd)"/>
    </symbol>
    <symbol id="linkedin-1" viewBox="0 0 32 32">
      <path fill="#f4f4fd" d="M32 32V20.26c0-5.74-1.24-10.16-7.95-10.16-3.23 0-5.39 1.77-6.27 3.45h-.1v-2.92h-6.36V32h6.63V21.42c0-2.79.52-5.48 3.97-5.48 3.4 0 3.45 3.18 3.45 5.66V32H32zM.53 10.64h6.63V32H.53V10.64zM3.84 0C1.72 0 0 1.72 0 3.84s1.72 3.88 3.84 3.88A3.88 3.88 0 0 0 7.7 3.84 3.85 3.85 0 0 0 3.84 0z" style="fill:var(--color1, #f4f4fd)"/>
    </symbol>
    <symbol id="instagram-2" viewBox="0 0 32 32">
      <path fill="#f4f4fd" d="M31.97 9.4a11.7 11.7 0 0 0-.74-3.87 7.8 7.8 0 0 0-1.85-2.84A7.87 7.87 0 0 0 26.54.84C25.52.45 24.36.17 22.66.1 20.95.02 20.4 0 16.06 0s-4.89.02-6.6.1C7.76.16 6.6.43 5.58.83a7.8 7.8 0 0 0-2.83 1.85A7.87 7.87 0 0 0 .9 5.52C.5 6.54.23 7.7.16 9.4c-.08 1.71-.1 2.26-.1 6.6s.02 4.9.1 6.6c.07 1.7.34 2.87.73 3.88a7.9 7.9 0 0 0 1.85 2.84c.8.81 1.77 1.44 2.84 1.84 1.02.4 2.18.67 3.88.75 1.7.07 2.25.09 6.6.09s4.88-.02 6.59-.1a11.7 11.7 0 0 0 3.88-.74 8.18 8.18 0 0 0 4.68-4.68c.4-1.02.67-2.18.75-3.88.07-1.7.1-2.25.1-6.6s-.02-4.89-.09-6.6zm-2.88 13.07a8.76 8.76 0 0 1-.55 2.97 5.3 5.3 0 0 1-3.04 3.04c-.56.22-1.41.48-2.97.55-1.69.07-2.2.1-6.46.1s-4.79-.02-6.47-.1a8.76 8.76 0 0 1-2.97-.55 4.93 4.93 0 0 1-1.84-1.2 4.97 4.97 0 0 1-1.19-1.83 8.81 8.81 0 0 1-.55-2.97c-.07-1.69-.1-2.2-.1-6.47s.03-4.78.1-6.46c.07-1.56.33-2.4.55-2.97.26-.7.66-1.32 1.2-1.84a4.97 4.97 0 0 1 1.84-1.19A8.81 8.81 0 0 1 9.6 3c1.69-.07 2.2-.1 6.46-.1 4.28 0 4.78.03 6.47.1 1.56.07 2.4.33 2.96.55.7.26 1.33.66 1.84 1.2.53.51.94 1.14 1.2 1.83.22.57.48 1.42.55 2.97.07 1.69.1 2.2.1 6.46s-.03 4.77-.1 6.46z" style="fill:var(--color1, #f4f4fd)"/>
      <path fill="#f4f4fd" d="M16.06 7.78a8.22 8.22 0 1 0 0 16.45 8.22 8.22 0 0 0 0-16.45zm0 13.55a5.33 5.33 0 1 1 0-10.66 5.33 5.33 0 0 1 0 10.67zM26.52 7.46a1.92 1.92 0 1 1-3.83 0 1.92 1.92 0 0 1 3.83 0z" style="fill:var(--color1, #f4f4fd)"/>
    </symbol>
    <symbol id="facebook-1" viewBox="0 0 32 32">
      <path fill="#f4f4fd" d="M21.33 5.31h2.92V.23C23.75.15 22.01 0 19.99 0c-4.2 0-7.1 2.65-7.1 7.52V12H8.26v5.69h4.65V32h5.7V17.69h4.46l.7-5.69H18.6V8.08c0-1.64.45-2.77 2.74-2.77z" style="fill:var(--color1, #f4f4fd)"/>
    </symbol>
    <symbol id="diagram-1" viewBox="0 0 32 32">
      <path fill="#4d5ae5" d="M14.93 14.96h1.06v4.8h-1.06v-4.8zM19.19 17.1h1.07v2.66h-1.07V17.1zM10.66 18.7h1.07v1.06h-1.07V18.7zM7.46 18.16h1.07v1.6H7.46v-1.6z" style="fill:var(--color2, #4d5ae5)"/>
      <path fill="#2e2f42" d="M1.6 28.3h25.59c.88 0 1.6-.73 1.6-1.6v-2.14c0-.88-.72-1.6-1.6-1.6h-.54V9.66l3.03-2.86a1.6 1.6 0 1 0-.75-.76L26.65 8.2V6.97c0-.88-.71-1.6-1.6-1.6H3.73c-.88 0-1.6.72-1.6 1.6v16H1.6c-.88 0-1.6.7-1.6 1.6v2.12c0 .89.72 1.6 1.6 1.6zM30.38 4.83a.53.53 0 1 1 0 1.06.53.53 0 0 1 0-1.06zM3.2 6.97c0-.3.24-.53.53-.53h21.32c.3 0 .54.23.54.53V9.2l-1.07 1.01V8.03c0-.29-.24-.53-.53-.53H4.79c-.29 0-.53.24-.53.53v13.33c0 .3.24.53.54.53h19.19c.3 0 .53-.23.53-.53V11.7l1.07-1.01v12.28H3.19v-16zM8 13.9a1.6 1.6 0 1 0 1.1 2.75l1.86.93c.21.1.47.06.63-.12l3.94-4.44 3.87 2.9c.21.16.5.14.69-.03l3.36-3.2v8.14H5.33V8.57h18.12v2.66l-3.77 3.57-3.9-2.93a.53.53 0 0 0-.72.08l-4 4.49-1.49-.75c.02-.06.02-.13.02-.19 0-.88-.71-1.6-1.6-1.6zm.53 1.6a.53.53 0 1 1-1.07 0 .53.53 0 0 1 1.07 0zm3.2 8.53h5.33v.53c0 .3-.24.53-.53.53h-4.27a.53.53 0 0 1-.53-.53v-.53zm-10.66.53c0-.3.24-.53.53-.53h9.06v.53c0 .88.72 1.6 1.6 1.6h4.26c.89 0 1.6-.72 1.6-1.6v-.53h9.06c.3 0 .54.24.54.53v2.13c0 .3-.24.53-.53.53H1.59a.53.53 0 0 1-.52-.53v-2.13z" style="fill:var(--color3, #2e2f42)"/>
    </symbol>
    <symbol id="antenna-1" viewBox="0 0 32 32">
      <path fill="#2e2f42" d="m30.77 22.1-8.44-8.5.94-4.62c.24.1.5.14.75.14h.01a2.16 2.16 0 1 0-2-1.43l-4.97.6L8.97.16A.53.53 0 0 0 8.6 0a.53.53 0 0 0-.37.16l-1.51 1.5c-.2.2-.2.55 0 .75l.81.83a14.94 14.94 0 0 0 2.52 17.66c.05.04.1.08.15.1-.04.18-.05.36-.05.55v6.18h-6.4a2.67 2.67 0 0 0-2.67 2.67v1.07c0 .3.24.53.53.53h24.54c.29 0 .53-.24.53-.53V30.4c0-1.47-1.2-2.66-2.67-2.66h-6.4v-2.75a14.85 14.85 0 0 0 10.09-1.46l.82.82a.53.53 0 0 0 .75 0l1.51-1.5c.2-.2.2-.54 0-.75zM23.28 6.23a1.07 1.07 0 1 1 .75 1.82 1.07 1.07 0 0 1-.75-1.82zm-1.26 3.5-.6 2.95-1.17-1.18 1.78-1.76zm-.6-.9-1.92 1.92L18 9.25l3.4-.41zM24 28.8c.89 0 1.6.72 1.6 1.6v.53H2.14v-.53c0-.88.71-1.6 1.6-1.6H24zm-7.46-2.13v1.06H11.2v-1.06h5.34zM11.2 25.6v-4.05c0-1.3 1.2-2.35 2.67-2.35s2.67 1.05 2.67 2.35v4.05H11.2zm6.4-1.7v-2.35c0-1.89-1.67-3.42-3.73-3.42a3.8 3.8 0 0 0-3.28 1.79A13.87 13.87 0 0 1 8.31 4.03l18.6 18.71a13.82 13.82 0 0 1-9.3 1.16zm11.3-.68L7.83 2.04l.75-.75 7.94 7.98 13.12 13.2-.76.75z" style="fill:var(--color3, #2e2f42)"/>
      <path fill="#4d5ae5" d="M13.88 20.27a1.6 1.6 0 1 0-.01 3.2 1.6 1.6 0 1 0 0-3.2zm.37 1.98c-.1.1-.24.15-.38.15a.53.53 0 0 1 0-1.07.53.53 0 0 1 .37.92z" style="fill:var(--color2, #4d5ae5)"/>
    </symbol>
    <symbol id="clock-1" viewBox="0 0 32 32">
      <path fill="#2e2f42" d="M31.3 15.3a15.3 15.3 0 1 0-19.96 14.58l.18.03c.12 0 .24-.03.35-.1.13-.07.23-.2.28-.35L16 17.21a1.91 1.91 0 1 0-.84-3.63l-5.1-5.1a.64.64 0 0 0-.9.9l5.1 5.1c-.4.8-.17 1.77.53 2.31l-3.68 11.67a14.04 14.04 0 1 1 10.57-.35l-.4-1.87a.64.64 0 0 0-1.05-.34l-3.83 3.42a.64.64 0 0 0 .23 1.09l4.9 1.56a.64.64 0 0 0 .82-.74l-.4-1.84A15.26 15.26 0 0 0 31.3 15.3zM16 14.66a.64.64 0 1 1 0 1.28.64.64 0 0 1 0-1.28zm2.1 14.87 2.18-1.95.6 2.84-2.79-.9z" style="fill:var(--color3, #2e2f42)"/>
      <path fill="#4d5ae5" d="M15.35 3.19v1.27a.64.64 0 1 0 1.28 0V3.19a.64.64 0 0 0-1.28 0zM3.88 14.66a.64.64 0 0 0 0 1.28h1.27a.64.64 0 1 0 0-1.28H3.88zM28.1 15.94a.64.64 0 1 0 0-1.28h-1.27a.64.64 0 0 0 0 1.28h1.28z" style="fill:var(--color2, #4d5ae5)"/>
    </symbol>
    <symbol id="astronaut-1" viewBox="0 0 32 32">
      <path fill="#4d5ae5" d="M31.97 4.52a.53.53 0 0 0-.43-.36l-1.9-.28-.86-1.73c-.18-.36-.78-.36-.96 0l-.85 1.73-1.91.28a.54.54 0 0 0-.3.91l1.38 1.35-.32 1.9c-.04.2.05.4.21.52.17.12.38.14.56.04l1.71-.9 1.71.9a.54.54 0 0 0 .78-.56l-.33-1.9 1.38-1.35c.15-.14.2-.35.14-.55zm-2.46 1.33a.53.53 0 0 0-.15.47l.19 1.12-1-.53a.53.53 0 0 0-.5 0l-1 .53.2-1.12a.53.53 0 0 0-.16-.47l-.81-.79 1.12-.16a.53.53 0 0 0 .4-.3l.5-1 .5 1c.08.16.23.27.4.3l1.12.16-.8.8zM26.13 20.52h-1.06v1.07h1.06v-1.07zM26.13 22.66h-1.06v1.06h1.06v-1.06zM27.2 21.59h-1.07v1.07h1.07v-1.07zM25.07 21.59H24v1.07h1.07v-1.07zM22.4 26.39h-1.07v1.07h1.07v-1.07zM22.4 28.52h-1.07v1.07h1.07v-1.07zM23.47 27.46H22.4v1.06h1.07v-1.06zM21.33 27.46h-1.06v1.06h1.06v-1.06zM16 24.26h-1.07v1.06H16v-1.06zM16 26.39h-1.07v1.07H16v-1.07zM17.07 25.32H16v1.07h1.07v-1.07zM14.93 25.32h-1.06v1.07h1.06v-1.07zM5.87 6.12H4.8V7.2h1.07V6.12zM5.87 8.26H4.8v1.06h1.07V8.26zM6.93 7.19H5.87v1.07h1.06V7.19zM4.8 7.19H3.73v1.07H4.8V7.19z" style="fill:var(--color2, #4d5ae5)"/>
      <path fill="#2e2f42" d="M24.71 14.16c-.28-.39-.7-.64-1.18-.7-.48-.07-.96.05-1.34.35l-1.26.96-1.9 1.41-1.35-.54A6.94 6.94 0 0 0 14.83 2.4a6.96 6.96 0 0 0-6.96 6.93c0 1.39.42 2.68 1.12 3.76l-2.76-.02H6.2l-.16.03-.03.02h-.02l-3.24 1.6-1.89.9a1.78 1.78 0 0 0 .93 3.3c.3.01.58-.06.84-.2l1.4-.74 2.26-1.17h1.35L2.2 22.2.86 23.55a1.65 1.65 0 0 0 0 2.35 1.67 1.67 0 0 0 2.36 0l1.31-1.3 1.74-1.3.9.89-1.76 1.75-1.34 1.34a1.65 1.65 0 0 0 0 2.36 1.67 1.67 0 0 0 2.36 0l3.48-3.47 1.01-1 .02-.02 5.17-5.66 3.47.5h.07c.07 0 .13-.02.2-.04l.04-.02.06-.03 3.21-2.13.03-.03.04-.03 1.27-1.19c.67-.62.76-1.63.22-2.36zM2.14 17.77a.71.71 0 0 1-.56.05.72.72 0 0 1-.21-1.26l1.31-.63.45 1.31-.99.53zm3.5-1.83-1.55.8-.44-1.28 2.03-1-.04 1.48zm15.1-6.62c0 .92-.22 1.79-.6 2.56l-4.18-1.9a1.86 1.86 0 0 0-.8-1.39l1.47-4.86a5.88 5.88 0 0 1 4.1 5.6zm-11.8 0a5.89 5.89 0 0 1 6.65-5.81l-1.44 4.75h-.05a1.87 1.87 0 1 0 0 3.73c.7 0 1.3-.38 1.62-.95l3.86 1.76A5.9 5.9 0 0 1 8.94 9.32zm5.96.8a.8.8 0 0 1-1.6 0 .8.8 0 0 1 1.6 0zM2.46 25.15a.6.6 0 0 1-.85 0 .6.6 0 0 1 0-.85l.96-.95.85.84-.96.96zm3.22 3.73a.6.6 0 0 1-.86 0 .6.6 0 0 1 0-.84l.97-.96.85.85-.96.95zm3.48-3.47-1.77 1.76-.85-.85 1.76-1.75c.05-.04.07-.09.1-.14l.02-.04c.02-.04.02-.08.03-.13l.01-.07-.02-.1c0-.04 0-.07-.02-.1a.55.55 0 0 0-.09-.14l-.02-.04-1.61-1.6-.06-.04a.5.5 0 0 0-.09-.05.51.51 0 0 0-.09-.04.5.5 0 0 0-.1-.02.5.5 0 0 0-.1 0l-.1.03a.48.48 0 0 0-.1.04l-.06.03-1.77 1.33-.9-.9 2.4-2.39 4.36 4.3-.93.91zm6.82-7.02h-.05a.56.56 0 0 0-.3.08.5.5 0 0 0-.08.06l-.04.03-4.7 5.15-4.33-4.26 2.84-2.82a.53.53 0 0 0-.38-.9H6.72l.03-1.6 3.1.02a6.95 6.95 0 0 0 6.26 1.98c.04.03.08.07.13.09l2.41.96.15.75.18.89-3-.43zm4.04.18-.31-1.56 1.44-1.08.95 1.26-2.08 1.38zm3.75-2.83-.83.79-.94-1.24.84-.64a.73.73 0 0 1 .54-.14.72.72 0 0 1 .4 1.23z" style="fill:var(--color3, #2e2f42)"/>
      <path fill="#2e2f42" d="m13.6 18.54-2.14-2.13a.53.53 0 0 0-.75 0l-2.15 2.13a.54.54 0 0 0 0 .76l2.15 2.13a.54.54 0 0 0 .75 0l2.14-2.13a.54.54 0 0 0 0-.76zm-2.52 1.76L9.7 18.92l1.38-1.38 1.39 1.38-1.39 1.38zM17.16 5.07l-.25 1.04c.07.01 1.73.45 1.73 2.15h1.07c0-2.02-1.66-2.97-2.55-3.19zM19.71 9.32h-1.07v1.07h1.07V9.32z" style="fill:var(--color3, #2e2f42)"/>
    </symbol>
    <symbol id="Logo" viewBox="0 0 59 32">
      <path  d="m21.71 4 4 3.81h-7.43v18.51h19.43v-7.08l4 3.82V4h-20zm15.83 14.8L26.18 7.98h11.36V18.8zM34 23.6H21.36V11.16h.9v11.61H34v.84zm-10.13 6.14-.47-.97h-.39l.69 1.28v.75h.35v-.75l.68-1.28h-.38l-.48.97zm1.74-.97h.09l.76 2.03h-.36l-.17-.47h-.79l-.16.47h-.37l.77-2.03h.23zm-.37 1.28h.6l-.3-.86-.3.86zm2.45-.34-.04-.06c-.05-.06-.1-.13-.12-.2s-.04-.13-.04-.2c0-.1.02-.2.06-.27s.1-.13.19-.18a.6.6 0 0 1 .28-.06c.1 0 .19.02.26.06a.44.44 0 0 1 .1.71.96.96 0 0 1-.13.13l-.15.1.4.47a.83.83 0 0 0 .09-.38h.3c0 .1-.02.2-.03.28s-.05.17-.1.25a.72.72 0 0 1-.05.09l.3.35h-.4l-.11-.14a.8.8 0 0 1-.21.12.94.94 0 0 1-.67-.03.55.55 0 0 1-.22-.2.56.56 0 0 1-.08-.3c0-.08.01-.15.05-.21s.08-.13.14-.18l.19-.15zm.17.2-.04.04c-.05.04-.09.07-.11.11l-.05.1v.08c0 .06 0 .12.03.17s.06.08.11.11.11.04.19.04a.51.51 0 0 0 .32-.11l-.45-.54zm.08-.37.13-.08c.06-.04.1-.08.12-.11s.04-.09.04-.15a.21.21 0 0 0-.21-.2.2.2 0 0 0-.2.13.28.28 0 0 0-.02.12c0 .04 0 .08.03.13l.09.14.02.03zm3.55.6h-.34c-.01.09-.04.16-.07.23s-.08.1-.14.13a.52.52 0 0 1-.24.05c-.08 0-.15-.02-.21-.05s-.1-.08-.15-.14l-.08-.21a1.2 1.2 0 0 1-.03-.28v-.17c0-.1.01-.2.03-.29s.05-.15.1-.21c.03-.06.08-.1.14-.13s.13-.05.21-.05c.1 0 .18.02.24.05s.1.08.14.15c.03.06.05.13.06.22h.35c-.02-.14-.06-.26-.12-.36s-.15-.19-.26-.25a.86.86 0 0 0-.4-.09c-.13 0-.25.03-.35.07s-.19.1-.26.2c-.08.08-.13.18-.17.3s-.06.25-.06.4v.16c0 .15.02.28.06.4s.1.22.16.3a.74.74 0 0 0 .6.26c.17 0 .3-.03.42-.09s.2-.14.26-.24c.07-.1.1-.23.12-.36zm1.94-.3v-.11c0-.15-.02-.3-.06-.41s-.1-.23-.17-.31c-.07-.1-.16-.16-.27-.2s-.21-.07-.34-.07c-.12 0-.24.02-.34.07a.83.83 0 0 0-.44.5c-.04.13-.06.27-.06.42v.11c0 .15.02.3.06.41s.1.23.18.31a.77.77 0 0 0 .6.27c.13 0 .24-.02.35-.07s.19-.1.26-.2c.08-.08.13-.18.17-.3s.06-.27.06-.42zm-.35-.11v.11c0 .11 0 .21-.03.3s-.05.16-.1.22c-.04.06-.09.1-.15.14s-.13.04-.2.04c-.08 0-.15-.01-.21-.04s-.12-.08-.16-.14c-.04-.06-.07-.13-.1-.22s-.03-.19-.03-.3v-.11c0-.12.01-.22.03-.3s.06-.16.1-.22a.42.42 0 0 1 .36-.18.4.4 0 0 1 .36.18c.05.06.08.13.1.22.02.08.03.18.03.3z" />
    </symbol>
<symbol id="Logo-5" viewBox="0 0 59 32">
<path  d="M30.589 15.68c-0.216-0.281-0.347-0.637-0.347-1.024 0-0.040 0.001-0.079 0.004-0.118l-0 0.005v-1.651c0-0.503 0.114-0.886 0.343-1.154 0.229-0.263 0.623-0.389 1.183-0.389 0.526 0 0.897 0.114 1.114 0.331 0.24 0.286 0.36 0.64 0.331 0.989v0.389h-0.931v-0.394c0-0.126-0.006-0.257-0.029-0.383-0.015-0.093-0.063-0.172-0.131-0.228l-0.001-0.001c-0.084-0.055-0.186-0.088-0.296-0.088-0.017 0-0.033 0.001-0.049 0.002l0.002-0c-0.014-0.001-0.030-0.002-0.047-0.002-0.116 0-0.225 0.035-0.315 0.095l0.002-0.001c-0.077 0.062-0.132 0.149-0.154 0.249l-0.001 0.003c-0.029 0.137-0.040 0.274-0.034 0.406v2.006c-0.017 0.194 0.023 0.389 0.114 0.56 0.051 0.057 0.114 0.114 0.194 0.137 0.056 0.023 0.122 0.037 0.191 0.037 0.017 0 0.035-0.001 0.051-0.003l-0.002 0c0.011 0.001 0.024 0.001 0.037 0.001 0.11 0 0.213-0.035 0.296-0.094l-0.002 0.001c0.074-0.060 0.126-0.146 0.143-0.243l0-0.002c0.023-0.131 0.029-0.263 0.029-0.4v-0.406h0.937v0.371c0.029 0.366-0.086 0.731-0.326 1.034-0.211 0.246-0.583 0.371-1.12 0.371-0.543 0-0.954-0.131-1.183-0.4zM34.503 15.697c-0.24-0.257-0.36-0.629-0.36-1.126v-1.737c0-0.486 0.12-0.857 0.36-1.109 0.234-0.257 0.629-0.377 1.189-0.377 0.554 0 0.949 0.126 1.183 0.377 0.24 0.251 0.36 0.623 0.36 1.109v1.737c0 0.491-0.12 0.869-0.36 1.126-0.246 0.257-0.634 0.389-1.183 0.389s-0.949-0.131-1.189-0.389zM36.131 15.28c0.080-0.16 0.12-0.337 0.114-0.514v-2.12c0.006-0.171-0.029-0.349-0.114-0.509-0.051-0.061-0.116-0.109-0.191-0.136l-0.003-0.001c-0.054-0.021-0.116-0.033-0.181-0.033-0.023 0-0.046 0.002-0.068 0.004l0.003-0c-0.019-0.002-0.041-0.004-0.064-0.004-0.065 0-0.128 0.012-0.185 0.034l0.004-0.001c-0.078 0.029-0.144 0.076-0.194 0.136l-0.001 0.001c-0.086 0.16-0.126 0.331-0.114 0.509v2.131c-0.011 0.177 0.029 0.354 0.114 0.514 0.057 0.057 0.12 0.097 0.194 0.126 0.072 0.029 0.155 0.046 0.243 0.046s0.171-0.017 0.247-0.048l-0.004 0.002c0.074-0.029 0.143-0.069 0.2-0.126v-0.011zM38.366 11.4h1.011l0.76 3.2 0.777-3.2h0.983l0.103 4.623h-0.731l-0.074-3.217-0.754 3.217h-0.583l-0.777-3.229-0.074 3.229h-0.731l0.091-4.629zM43.131 11.4h1.577c0.909 0 1.36 0.434 1.36 1.314 0 0.834-0.474 1.257-1.429 1.257h-0.543v2.051h-0.971l0.006-4.629zM44.48 13.371c0.097 0.011 0.194 0 0.286-0.023s0.177-0.063 0.251-0.12c0.109-0.16 0.16-0.343 0.137-0.526 0-0.137-0.011-0.28-0.046-0.417-0.016-0.049-0.042-0.091-0.074-0.126l0 0c-0.033-0.037-0.073-0.068-0.118-0.090l-0.002-0.001c-0.137-0.057-0.286-0.086-0.434-0.074h-0.377v1.377h0.377zM47.474 11.4h1.046l1.069 4.623h-0.903l-0.211-1.069h-0.937l-0.217 1.069h-0.914l1.069-4.629zM48.366 14.417l-0.366-1.943-0.36 1.943h0.726zM50.457 11.4h0.68l1.303 2.634v-2.634h0.806v4.623h-0.646l-1.314-2.754v2.754h-0.829v-4.629zM55.143 14.257l-1.086-2.857h0.914l0.657 1.84 0.623-1.834h0.891l-1.069 2.857v1.76h-0.937v-1.766zM32.091 18.040v0.246h-0.8v1.874h-0.326v-1.874h-0.8v-0.246h1.926zM34.577 20.16h-0.257c-0.002 0-0.005 0-0.008 0-0.022 0-0.043-0.006-0.061-0.018l0 0c-0.020-0.012-0.036-0.030-0.045-0.051l-0-0.001-0.229-0.503h-1.103l-0.229 0.503c-0.007 0.022-0.019 0.042-0.034 0.057v0c-0.019 0.014-0.043 0.023-0.069 0.023-0.002 0-0.004-0-0.006-0h-0.257l0.971-2.12h0.343l0.983 2.114zM32.966 19.377h0.92l-0.389-0.863c-0.026-0.054-0.051-0.121-0.071-0.189l-0.003-0.011-0.034 0.114-0.034 0.086-0.389 0.857zM36.257 19.954h0.183c0.107-0.008 0.206-0.031 0.299-0.065l-0.008 0.002 0.131-0.057v-0.474h-0.417c-0.009-0.004-0.017-0.010-0.023-0.017l-0-0c-0.007-0.004-0.013-0.010-0.017-0.017l-0-0v-0.183h0.754v0.811c-0.187 0.118-0.411 0.197-0.652 0.217l-0.005 0c-0.091 0.011-0.189 0.017-0.286 0.017-0.166 0-0.331-0.029-0.486-0.080-0.15-0.053-0.279-0.128-0.39-0.224l0.002 0.001c-0.104-0.093-0.189-0.205-0.249-0.331l-0.003-0.006c-0.057-0.137-0.091-0.286-0.091-0.44-0-0.011-0.001-0.023-0.001-0.036 0-0.296 0.133-0.562 0.342-0.74l0.001-0.001c0.109-0.097 0.24-0.171 0.383-0.223 0.153-0.052 0.328-0.082 0.511-0.082 0.1 0 0.198 0.009 0.293 0.026l-0.010-0.002c0.16 0.023 0.304 0.071 0.436 0.141l-0.007-0.003c0.057 0.034 0.114 0.069 0.171 0.114l-0.097 0.126c-0.008 0.012-0.020 0.022-0.034 0.028l-0.001 0c-0.012 0.006-0.025 0.010-0.040 0.011h-0c-0.023-0-0.045-0.006-0.063-0.017l0.001 0c-0.041-0.017-0.072-0.032-0.104-0.049l0.006 0.003c-0.155-0.076-0.337-0.12-0.529-0.12-0.009 0-0.018 0-0.027 0l0.001-0c-0.126-0.006-0.257 0.011-0.377 0.057-0.215 0.069-0.384 0.227-0.467 0.429l-0.002 0.005c-0.086 0.229-0.086 0.469 0 0.703 0.046 0.097 0.114 0.189 0.2 0.263 0.147 0.135 0.344 0.218 0.561 0.218 0.038 0 0.075-0.003 0.112-0.008l-0.004 0zM39.354 19.92h1.063v0.24h-1.383v-2.114h0.331l-0.011 1.874zM41.526 20.16h-0.337v-2.114h0.337v2.114zM42.76 18.057c0.023 0 0.040 0.017 0.057 0.034l1.417 1.6v-1.657h0.286v2.126h-0.166c-0.023 0-0.046 0-0.069-0.011-0.022-0.010-0.041-0.024-0.057-0.040l-0-0-1.417-1.6v1.651h-0.28v-2.114h0.171l0.057 0.006zM46.971 18.040v0.234h-1.177v0.703h0.954v0.229h-0.954v0.72h1.177v0.229h-1.52v-2.114h1.52zM12.114 4.949l14.771 3.617v12.686l-14.771-3.617v-12.686zM11.166 3.863v14.389l16.663 4.080v-14.377l-16.663-4.086z"></path>
<path  d="M20.097 29.011l-16.669-4.097v-14.371l16.669 4.086v14.383z"></path>
<path  d="M11.44 4.783l14.583 3.577-6.206 5.349-14.577-3.571 6.2-5.354zM11.166 3.869l-7.737 6.674 16.669 4.086 7.731-6.674-16.663-4.086zM21.029 28.2l6.8-5.857-6.8-1.669v7.531z"></path>
</symbol>
<symbol id="Logo-4" viewBox="0 0 59 32">
<path  d="M15.314 25.354c0.137 0.16 0.211 0.354 0.206 0.554 0.006 0.131-0.017 0.263-0.074 0.383s-0.143 0.229-0.251 0.314c-0.274 0.189-0.611 0.28-0.949 0.257h-1.674v-3.503h1.64c0.32-0.023 0.64 0.057 0.903 0.229 0.109 0.080 0.189 0.183 0.246 0.297s0.080 0.234 0.074 0.36c0.006 0.194-0.057 0.383-0.189 0.537-0.131 0.137-0.303 0.234-0.503 0.274 0.229 0.034 0.423 0.143 0.571 0.297zM13.349 24.829h0.703c0.154 0.011 0.314-0.034 0.44-0.114 0.057-0.046 0.097-0.097 0.12-0.16 0.029-0.057 0.040-0.12 0.034-0.189 0-0.006 0.001-0.014 0.001-0.021 0-0.059-0.013-0.114-0.036-0.165l0.001 0.002c-0.027-0.061-0.066-0.113-0.114-0.154l-0.001-0c-0.114-0.076-0.254-0.122-0.404-0.122-0.019 0-0.037 0.001-0.055 0.002l0.002-0h-0.686v0.914zM14.56 26.171c0.057-0.046 0.103-0.097 0.131-0.16 0.022-0.048 0.035-0.105 0.035-0.165 0-0.010-0-0.021-0.001-0.031l0 0.001c0.001-0.010 0.002-0.022 0.002-0.035 0-0.060-0.013-0.117-0.037-0.168l0.001 0.002c-0.032-0.064-0.076-0.118-0.13-0.159l-0.001-0.001c-0.121-0.080-0.269-0.127-0.428-0.127-0.016 0-0.033 0-0.049 0.002l0.002-0h-0.737v0.954h0.743c0.171 0.011 0.331-0.034 0.469-0.12zM18.657 26.857l-0.914-1.366h-0.343v1.371h-0.783v-3.503h1.486c0.371-0.023 0.743 0.080 1.029 0.297 0.211 0.189 0.337 0.44 0.354 0.703 0.023 0.269-0.063 0.531-0.24 0.743-0.183 0.194-0.434 0.32-0.709 0.36l0.971 1.4h-0.857zM17.4 25.017h0.646c0.446 0 0.669-0.177 0.669-0.531 0-0.006 0-0.013 0-0.020 0-0.069-0.015-0.135-0.042-0.195l0.001 0.003c-0.030-0.072-0.072-0.133-0.125-0.183l-0-0c-0.122-0.091-0.275-0.145-0.441-0.145-0.022 0-0.043 0.001-0.064 0.003l0.003-0h-0.651l0.011 1.069zM22.937 26.16h-1.56l-0.274 0.697h-0.823l1.434-3.457h0.886l1.429 3.463h-0.817l-0.274-0.703zM22.731 25.629l-0.571-1.486-0.571 1.486h1.143zM28.297 26.857h-0.777l-1.743-2.377v2.377h-0.777v-3.503h0.777l1.743 2.4v-2.4h0.777v3.503zM32.737 26.023c-0.16 0.263-0.406 0.48-0.703 0.617-0.343 0.154-0.714 0.229-1.091 0.223h-1.389v-3.503h1.389c0.377-0.011 0.749 0.063 1.086 0.211 0.303 0.137 0.549 0.349 0.709 0.611 0.152 0.265 0.241 0.582 0.241 0.92s-0.090 0.655-0.246 0.929l0.005-0.009zM31.846 25.937c0.229-0.229 0.343-0.526 0.343-0.834s-0.114-0.6-0.343-0.834c-0.242-0.187-0.549-0.3-0.883-0.3-0.031 0-0.062 0.001-0.092 0.003l0.004-0h-0.543v2.269h0.543c0.354 0.017 0.703-0.091 0.971-0.303zM23.429 3.869s10.034 3.411 9.823 8.343v8.36s-10.029-3.417-9.823-8.354v-8.349zM42.194 18.611c1.823-1.136 3.992-1.893 6.319-2.11l0.058-0.004v-2.617c-2.631 0.904-4.811 2.553-6.351 4.693l-0.026 0.038z"></path>
<path  d="M41.057 19.4c1.659-2.87 4.283-5.025 7.421-6.042l0.094-0.026v-7.531s-14.297 4.857-13.994 11.891v11.886s0.64-0.211 1.64-0.623c0-0.377 0-0.76 0.046-1.143 0.297-3.269 2.017-6.291 4.794-8.411z"></path>
<path  d="M39.697 23.817c0.074-0.829 0.24-1.64 0.497-2.434-1.794 1.869-2.929 4.382-3.028 7.158l-0.001 0.019c1.2-0.514 2.105-0.95 2.992-1.417l-0.238 0.114c-0.174-0.735-0.273-1.58-0.273-2.447 0-0.35 0.016-0.695 0.048-1.037l-0.003 0.044zM40.263 23.857c-0.097 1.040-0.034 2.091 0.177 3.12 3.909-2.103 8.303-5.354 8.131-9.286v-0.343c-2.789 0.286-5.4 1.383-7.429 3.126-0.449 0.989-0.759 2.136-0.871 3.34l-0.003 0.043z"></path>
</symbol>
    <symbol id="Logo-3" viewBox="0 0 59 32">
      <path  d="M13.76 12.3c-1.37 0-2.47 1-2.47 2.22 0 1.23 1.1 2.23 2.47 2.23 1.36 0 2.47-1 2.47-2.23s-1.1-2.22-2.47-2.22zM31.98 11.59c0-1.71-.76-3.35-2.1-4.56s-3.15-1.88-5.04-1.89c-1.9 0-3.71.69-5.05 1.9s-2.1 2.84-2.1 4.54V21s14.29-1.44 14.29-9.41zM6.29 24.09c0 1.19.52 2.32 1.46 3.16s2.19 1.32 3.5 1.32c1.32 0 2.59-.48 3.52-1.32s1.45-1.97 1.46-3.16v-6.55s-9.94 1-9.94 6.55zm4.97 1.17c-.26 0-.51-.07-.73-.2s-.38-.3-.48-.52-.12-.45-.07-.68c.05-.23.17-.44.36-.6a1.42 1.42 0 0 1 1.42-.26c.23.1.44.24.58.44a1.1 1.1 0 0 1-.16 1.48 1.35 1.35 0 0 1-.92.35zM20.35 23.15v2.44h-.5v-2.44h.5zm.97 1.04v.4h-1.1v-.4h1.1zm.12-1.04v.4H20.2v-.4h1.23zm2.29 1.16v.12c0 .18-.03.35-.07.5s-.13.27-.22.37c-.09.1-.2.19-.33.24-.12.06-.26.08-.42.08a.95.95 0 0 1-.75-.32c-.09-.1-.16-.22-.21-.37a1.55 1.55 0 0 1-.08-.5v-.12c0-.18.03-.35.08-.5.05-.14.12-.27.21-.37.1-.1.2-.19.33-.24.13-.06.27-.08.42-.08.15 0 .3.02.42.08.13.05.24.13.33.24.1.1.16.23.21.37.05.15.08.32.08.5zm-.5.12v-.12c0-.13-.02-.24-.04-.34s-.06-.18-.1-.25-.1-.12-.17-.15c-.07-.04-.15-.05-.23-.05s-.16.01-.23.05a.46.46 0 0 0-.16.15c-.05.07-.08.15-.1.25s-.04.21-.04.34v.12c0 .13.01.24.04.34.02.1.05.18.1.25s.1.12.17.15.14.05.22.05c.09 0 .16-.01.23-.05s.12-.08.16-.15a.76.76 0 0 0 .1-.25c.03-.1.04-.21.04-.34zm2.13.52c0-.04 0-.08-.02-.12a.22.22 0 0 0-.07-.1l-.15-.08a2.35 2.35 0 0 0-.24-.1 3.17 3.17 0 0 1-.31-.11c-.1-.05-.19-.1-.27-.16a.58.58 0 0 1-.24-.48c0-.1.03-.2.07-.28.05-.08.1-.15.19-.21.08-.06.17-.11.28-.14a1.3 1.3 0 0 1 .84.05c.13.06.23.15.3.26.08.11.12.24.12.39h-.5a.38.38 0 0 0-.04-.19.3.3 0 0 0-.14-.13.48.48 0 0 0-.22-.05.52.52 0 0 0-.22.04.3.3 0 0 0-.13.1.26.26 0 0 0-.05.16c0 .04.01.08.03.1l.1.1.15.08.21.08c.13.04.25.08.35.14a.73.73 0 0 1 .4.38c.04.08.06.17.06.27s-.02.2-.06.28-.1.16-.18.22c-.08.05-.17.1-.28.13a1.37 1.37 0 0 1-1.04-.15c-.1-.07-.17-.15-.23-.25s-.08-.22-.08-.36h.5c0 .08.01.14.04.2s.05.1.1.12c.04.04.09.06.15.07.06.02.12.03.2.03.08 0 .15-.02.21-.04.06-.03.1-.06.13-.1.02-.05.04-.1.04-.15zm1.93-1.8v2.44h-.5v-2.44h.5zm.75 0v.4h-1.98v-.4h1.98zm1.93 2.05v.39h-1.3v-.4h1.3zm-1.14-2.05v2.44h-.5v-2.44h.5zm.97 1v.38h-1.13v-.39h1.13zm.16-1v.4h-1.3v-.4h1.3zm.3 0h.9c.2 0 .35.03.49.09.13.05.24.13.3.24a.83.83 0 0 1 .05.74c-.04.1-.1.17-.19.24a.97.97 0 0 1-.28.14l-.15.09h-.8v-.4h.6c.08 0 .15-.01.21-.04s.1-.08.13-.13a.4.4 0 0 0 .05-.2c0-.08-.02-.14-.05-.2s-.07-.1-.13-.13-.13-.05-.22-.05h-.41v2.05h-.5v-2.44zm1.36 2.44-.56-1.09h.54l.56 1.07v.02h-.54zm2.64-.87h-.62v-.4h.62a.5.5 0 0 0 .23-.04c.06-.03.1-.08.13-.13s.05-.12.05-.2c0-.07-.02-.14-.05-.2s-.07-.11-.13-.15-.14-.06-.23-.06h-.45v2.05h-.5v-2.44h.95c.19 0 .35.04.49.1a.74.74 0 0 1 .42.7c0 .16-.03.3-.1.4s-.18.21-.32.27c-.14.07-.3.1-.5.1zm2.9.48v.39h-1.3v-.4h1.3zm-1.14-2.05v2.44h-.5v-2.44h.5zm.96 1v.38h-1.12v-.39h1.12zm.17-1v.4h-1.3v-.4h1.3zm1.42 0v2.44h-.5v-2.44h.5zm.75 0v.4h-1.99v-.4h2zm1.92 2.05v.39h-1.3v-.4h1.3zm-1.13-2.05v2.44h-.5v-2.44h.5zm.96 1v.38h-1.12v-.39h1.12zm.17-1v.4h-1.3v-.4h1.3zm.3 0h.9c.19 0 .35.03.48.09.14.05.24.13.31.24s.11.25.11.4c0 .14-.02.25-.06.34-.05.1-.1.17-.19.24a.97.97 0 0 1-.28.14l-.16.09h-.79v-.4h.59c.08 0 .16-.01.22-.04s.1-.08.13-.13a.4.4 0 0 0 .04-.2c0-.08-.01-.14-.04-.2s-.07-.1-.13-.13a.49.49 0 0 0-.23-.05h-.4v2.05h-.5v-2.44zm1.36 2.44-.56-1.09h.53l.57 1.07v.02h-.54zm2.1-.64c0-.04 0-.08-.02-.12a.22.22 0 0 0-.07-.1l-.15-.08a2.35 2.35 0 0 0-.24-.1 3.08 3.08 0 0 1-.31-.11c-.1-.05-.19-.1-.26-.16a.58.58 0 0 1-.24-.48c0-.1.02-.2.06-.28.05-.08.1-.15.19-.21.08-.06.17-.11.28-.14a1.3 1.3 0 0 1 .84.05c.13.06.23.15.3.26.08.11.12.24.12.39H45a.38.38 0 0 0-.04-.19.3.3 0 0 0-.14-.13.48.48 0 0 0-.22-.05.52.52 0 0 0-.22.04.3.3 0 0 0-.13.1.26.26 0 0 0-.05.16c0 .04.01.08.03.1l.1.1.15.08.21.08c.13.04.25.08.35.14a.73.73 0 0 1 .4.38c.04.08.06.17.06.27s-.02.2-.06.28-.1.16-.18.22c-.08.05-.17.1-.28.13a1.37 1.37 0 0 1-1.04-.15c-.1-.07-.17-.15-.23-.25s-.08-.22-.08-.36h.5c0 .08.01.14.03.2s.06.1.1.12c.05.04.1.06.16.07.06.02.12.03.2.03.08 0 .15-.02.21-.04.06-.03.1-.06.13-.1.02-.05.04-.1.04-.15z" />
    </symbol>
    <symbol id="Logo-2" viewBox="0 0 59 32">
<path  d="M21.034 28.126l0.029 0.006 0.023 0.017 0.126 0.114c-0.103 0.097-0.223 0.171-0.354 0.229-0.16 0.057-0.331 0.086-0.509 0.080-0.16 0-0.32-0.023-0.469-0.074-0.268-0.088-0.48-0.285-0.586-0.537l-0.002-0.006c-0.053-0.123-0.083-0.266-0.083-0.416 0-0.155 0.033-0.303 0.092-0.436l-0.003 0.007c0.057-0.12 0.137-0.234 0.246-0.331 0.109-0.091 0.234-0.166 0.377-0.211 0.143-0.050 0.308-0.078 0.48-0.078 0.165 0 0.325 0.027 0.473 0.076l-0.011-0.003c0.12 0.046 0.24 0.114 0.337 0.189l-0.109 0.126c-0.006 0.009-0.014 0.016-0.023 0.023l-0 0c-0.011 0.007-0.025 0.012-0.040 0.012-0.002 0-0.004-0-0.006-0l0 0c-0.017-0.002-0.033-0.008-0.046-0.017l0 0-0.057-0.029-0.074-0.046c-0.117-0.058-0.255-0.092-0.4-0.092-0.014 0-0.028 0-0.042 0.001l0.002-0c-0.114 0-0.24 0.023-0.349 0.057-0.207 0.065-0.371 0.214-0.455 0.407l-0.002 0.005c-0.040 0.114-0.063 0.229-0.057 0.343-0.001 0.012-0.001 0.026-0.001 0.039 0 0.325 0.208 0.601 0.499 0.702l0.005 0.002c0.097 0.034 0.206 0.057 0.32 0.057l0.194-0.011c0.158-0.017 0.299-0.079 0.413-0.172l-0.001 0.001c0.016-0.016 0.038-0.027 0.063-0.029h0zM24.68 27.531c0 0.143-0.029 0.286-0.086 0.417-0.057 0.126-0.131 0.234-0.24 0.326-0.103 0.097-0.229 0.171-0.371 0.217-0.309 0.097-0.651 0.097-0.96 0-0.143-0.051-0.267-0.124-0.373-0.218l0.001 0.001c-0.101-0.089-0.182-0.197-0.238-0.32l-0.002-0.006c-0.114-0.274-0.114-0.571 0-0.84 0.057-0.126 0.137-0.234 0.24-0.331 0.109-0.091 0.229-0.16 0.371-0.206 0.143-0.049 0.308-0.077 0.48-0.077s0.337 0.028 0.491 0.080l-0.011-0.003c0.137 0.046 0.269 0.12 0.371 0.211 0.2 0.178 0.326 0.436 0.326 0.723 0 0.009-0 0.018-0 0.026l0-0.001zM24.349 27.531c0-0.114-0.017-0.229-0.057-0.337-0.077-0.197-0.237-0.347-0.435-0.41l-0.005-0.001c-0.229-0.074-0.474-0.074-0.697 0-0.103 0.034-0.194 0.091-0.269 0.16-0.074 0.074-0.131 0.16-0.171 0.251-0.080 0.217-0.080 0.457 0 0.674 0.077 0.197 0.236 0.348 0.435 0.41l0.005 0.001c0.229 0.069 0.474 0.069 0.697 0 0.2-0.067 0.357-0.217 0.433-0.407l0.002-0.005c0.046-0.109 0.063-0.223 0.057-0.337zM27.166 27.886l0.029 0.074 0.080-0.149 0.806-1.257 0.046-0.034c0.016-0.004 0.034-0.006 0.053-0.006 0.006 0 0.011 0 0.017 0.001l-0.001-0h0.234v2.034h-0.286v-1.629l-0.806 1.269c-0.011 0.019-0.026 0.035-0.045 0.045l-0.001 0c-0.020 0.011-0.043 0.017-0.068 0.017-0 0-0 0-0.001 0h-0.046c-0.002 0-0.004 0-0.006 0-0.025 0-0.048-0.006-0.069-0.018l0.001 0c-0.019-0.011-0.035-0.026-0.045-0.045l-0-0.001-0.834-1.28v1.634h-0.274v-2.029h0.24l0.069 0.006c0.017 0.006 0.034 0.023 0.040 0.040l0.823 1.257c0.017 0.017 0.034 0.040 0.046 0.069zM30.194 27.783v0.766h-0.314v-2.034h0.703c0.137 0 0.269 0.011 0.4 0.046 0.097 0.023 0.194 0.063 0.274 0.126 0.069 0.057 0.12 0.12 0.154 0.2 0.040 0.080 0.057 0.171 0.057 0.257 0 0.002 0 0.004 0 0.006 0 0.186-0.089 0.352-0.227 0.456l-0.001 0.001c-0.086 0.063-0.177 0.109-0.286 0.137-0.114 0.034-0.246 0.051-0.377 0.046h-0.383zM30.194 27.566h0.383c0.086 0 0.171-0.011 0.246-0.029 0.068-0.021 0.127-0.052 0.178-0.092l-0.001 0.001c0.087-0.071 0.143-0.178 0.143-0.298 0-0.004-0-0.007-0-0.011v0.001c0-0.006 0.001-0.014 0.001-0.021 0-0.050-0.011-0.098-0.030-0.141l0.001 0.002c-0.027-0.057-0.066-0.105-0.113-0.142l-0.001-0.001c-0.105-0.069-0.234-0.11-0.373-0.11-0.017 0-0.035 0.001-0.052 0.002l0.002-0h-0.383v0.84zM34.434 28.549h-0.246c-0.002 0-0.004 0-0.006 0-0.023 0-0.044-0.006-0.063-0.018l0.001 0c-0.017-0.012-0.030-0.027-0.040-0.045l-0-0.001-0.217-0.497h-1.080l-0.217 0.497c-0.009 0.019-0.023 0.034-0.040 0.045l-0 0c-0.018 0.011-0.040 0.018-0.063 0.018-0.004 0-0.008-0-0.012-0.001l0.001 0h-0.246l0.937-2.034h0.331l0.954 2.034zM32.874 27.794h0.891l-0.377-0.829c-0.029-0.063-0.051-0.126-0.069-0.194l-0.040 0.109-0.034 0.086-0.371 0.829zM35.8 26.52l0.046 0.040 1.383 1.531v-1.577h0.286v2.034h-0.16c-0.023 0-0.046 0-0.069-0.011-0.020-0.010-0.037-0.024-0.051-0.040l-0-0-1.371-1.531v1.583h-0.286v-2.034h0.166l0.057 0.006zM39.834 27.737v0.811h-0.314v-0.811l-0.874-1.223h0.286c0.001-0 0.002-0 0.003-0 0.022 0 0.043 0.006 0.061 0.017l-0-0 0.046 0.046 0.543 0.789c0.034 0.052 0.067 0.112 0.094 0.175l0.003 0.008 0.040-0.086 0.057-0.097 0.537-0.8c0.012-0.015 0.025-0.028 0.039-0.040l0.001-0c0.017-0.011 0.037-0.018 0.059-0.018 0.003 0 0.007 0 0.010 0l-0-0h0.286l-0.874 1.229zM27.006 23.097l0.417 0.034c2.106-0.791 3.86-2.111 5.157-3.801l0.020-0.027c1.149-1.503 1.841-3.409 1.841-5.476 0-0.056-0.001-0.111-0.002-0.167l0 0.008-2.343-2c0.154 0.66 0.243 1.419 0.243 2.198 0 1.498-0.327 2.919-0.915 4.196l0.026-0.063c-0.991 2.121-2.513 3.852-4.399 5.069l-0.047 0.029z"></path>
<path  d="M26.171 23l0.057 0.011c2.149-1.309 3.783-3.137 4.697-5.246 0.914-2.114 1.063-4.411 0.429-6.594l-3.337-2.857c1.349 2.343 1.891 4.971 1.566 7.571-0.385 2.783-1.614 5.227-3.416 7.12l0.005-0.005zM37.503 16.023c-0.571 2.189-1.949 4.166-3.931 5.629-0.583 0.429-1.206 0.817-1.869 1.143 1.664-0.415 3.119-1.138 4.369-2.111l-0.026 0.020c1.193-0.927 2.146-2.107 2.787-3.462l0.025-0.058-1.354-1.16z"></path>
<path  d="M36.971 15.703l-1.931-1.651c-0.053 2.006-0.724 3.846-1.83 5.346l0.018-0.026c-1.212 1.639-2.803 2.933-4.646 3.764l-0.074 0.030h0.006c0.434 0 0.869-0.017 1.297-0.063 1.832-0.634 3.395-1.638 4.667-2.93l0.002-0.002c1.182-1.201 2.051-2.713 2.472-4.402l0.014-0.066zM26.451 7.114l-2.303-1.971c-2.047 0.663-3.771 1.853-5.066 3.411l-0.014 0.018c-1.179 1.424-1.902 3.262-1.926 5.269l-0 0.005c0.033 2.229 0.914 4.246 2.335 5.747l-0.004-0.004c1.503 1.64 3.6 2.8 5.966 3.309 2.114-2.2 3.349-4.914 3.531-7.754 0.177-2.834-0.703-5.651-2.52-8.029zM42.286 15.4c-0.006-2.474-1.16-4.84-3.2-6.589-2.051-1.704-4.711-2.738-7.613-2.738-0.036 0-0.071 0-0.107 0l0.005-0c-1.331 0-2.657 0.211-3.903 0.623l14.086 12.040c0.46-0.979 0.729-2.126 0.731-3.336v-0.001z"></path>
</symbol>
    <symbol id="Logo-1" viewBox="0 0 59 32">
      <path  d="M28.64 3.4h-.08c-.12-.02-.24-.02-.36-.02h-.26a14.46 14.46 0 0 0-.74.02c-2.08.11-4.12.63-6.01 1.53l-.25.12V17.7l.58-.2a19.62 19.62 0 0 1 6.23-1.1v1.67l-.6.02h-.05a18.54 18.54 0 0 0-7.8 2.2V4.06a16.98 16.98 0 0 1 4.44-1.8c1.37-.36 2.78-.54 4.2-.55h.24a12 12 0 0 1 2.93.37v1.64c-.66-.15-1.34-.26-2.02-.3h-.04l-.42-.03zm2.88 1.66a17.95 17.95 0 0 0 5.53-.52c1.47-.37 2.9-.93 4.23-1.65v15.93c-1.4.81-2.89 1.42-4.45 1.81-1.37.36-2.78.54-4.2.54-1.06.01-2.13-.11-3.17-.37V4.76a13.3 13.3 0 0 0 2.06.3zm8.1.13-.57.2a19.61 19.61 0 0 1-7.47 1.06l-.46-.03v13.01l.4.04a15.34 15.34 0 0 0 4.91-.44c1.01-.26 2-.62 2.95-1.07l.25-.12V5.2zM20.42 25.84a.86.86 0 0 0-.64-.26.95.95 0 0 0-.66.26.96.96 0 0 0-.25.65v2.16a.87.87 0 0 0 .3.74c.08.07.18.13.3.15.1.03.2.05.32.05s.24-.03.35-.08a.9.9 0 0 0 .54-.84v-.24h-.56v.2a.5.5 0 0 1-.04.19.35.35 0 0 1-.08.12.33.33 0 0 1-.12.06.37.37 0 0 1-.12.02c-.05 0-.1 0-.14-.02s-.1-.05-.12-.1a.51.51 0 0 1-.08-.28v-2.03c0-.1.02-.22.07-.32a.28.28 0 0 1 .28-.13c.05 0 .1 0 .14.03s.08.05.11.1c.07.08.1.18.1.28v.19h.56v-.22a1.02 1.02 0 0 0-.26-.68zM23.79 25.81a1 1 0 0 0-.98-.18.91.91 0 0 0-.52.48 1 1 0 0 0-.09.42v2.08c0 .15.03.3.09.43.05.11.12.21.22.3.08.07.18.13.3.17a.98.98 0 0 0 .98-.18.9.9 0 0 0 .3-.72v-2.07a1 1 0 0 0-.09-.42.93.93 0 0 0-.21-.3zm-.27 2.8a.38.38 0 0 1-.1.3.41.41 0 0 1-.54 0c-.04-.03-.07-.08-.1-.13s-.02-.11-.01-.17v-2.07a.38.38 0 0 1 .1-.3.41.41 0 0 1 .54 0c.04.03.07.08.1.13s.02.11.01.16v2.08zM28.21 29.54v-3.93h-.55l-.71 2.08h-.01l-.72-2.08h-.54v3.93h.56v-2.4h.01l.55 1.7h.28l.56-1.7v2.4h.57zM31.4 25.88a.79.79 0 0 0-.31-.21 1.25 1.25 0 0 0-.41-.06h-.84v3.93h.56v-1.53h.3c.17 0 .34-.03.5-.11a.94.94 0 0 0 .44-.64 2.8 2.8 0 0 0-.03-1.02.83.83 0 0 0-.2-.36zm-.28 1.2c0 .07-.02.14-.06.2a.31.31 0 0 1-.14.14.57.57 0 0 1-.27.05h-.25v-1.33h.29c.08 0 .17 0 .25.04.06.04.1.09.13.15.03.07.05.14.05.22v.53zM34.06 25.6h-.46l-.87 3.94h.57l.16-.84h.77l.16.84h.56l-.89-3.93zm-.52 2.56.28-1.43h.01l.28 1.43h-.57zM37.69 27.98h-.01l-.85-2.37h-.54v3.93h.56v-2.36h.01l.86 2.36h.53v-3.93h-.56v2.37zM41.11 25.6l-.45 1.57h-.01l-.45-1.56h-.6l.77 2.27v1.66h.57v-1.66l.77-2.27h-.6zM18.86 30.65h.27v.76h.18v-.76h.27v-.15h-.72v.15zM21.13 30.5l-.35.91h.2l.07-.2h.36l.08.2h.2l-.37-.91h-.19zm-.03.55.12-.34.13.34h-.25zM23.38 31.08h.2v.11a.36.36 0 0 1-.21.08.23.23 0 0 1-.2-.09.39.39 0 0 1-.06-.23c0-.2.09-.3.26-.3a.2.2 0 0 1 .2.14l.19-.04c-.04-.18-.17-.27-.39-.27a.46.46 0 0 0-.32.12c-.04.04-.08.1-.1.16s-.03.13-.03.2c0 .12.04.24.12.33a.45.45 0 0 0 .35.14c.14 0 .28-.05.38-.15v-.36h-.4v.16zM25.67 30.5h-.18v.91h.64v-.15h-.46v-.76zM27.61 30.5h-.18v.91h.18v-.91zM29.5 31.1l-.37-.6h-.18v.91h.18v-.6l.36.6h.19v-.91h-.17v.6zM31.22 31.01h.46v-.15h-.46v-.2h.5v-.16h-.68v.91h.69v-.15h-.5V31zM35.38 30.86h-.36v-.36h-.19v.91h.19v-.4h.36v.4h.18v-.91h-.18v.36zM37.1 31.01h.46v-.15h-.46v-.2h.5v-.16h-.68v.91h.7v-.15h-.52V31zM39.44 31.01c.16-.03.24-.1.24-.25a.21.21 0 0 0-.09-.2.52.52 0 0 0-.27-.06h-.38v.91h.18v-.38h.04c.04 0 .08 0 .11.02a.2.2 0 0 1 .07.07l.2.29h.22l-.11-.18a.64.64 0 0 0-.2-.22zm-.18-.13h-.14v-.23h.15c.06 0 .12 0 .18.03.02 0 .03.02.03.04l.01.05-.01.05-.04.04a.54.54 0 0 1-.18.02zM41.2 31.01h.46v-.15h-.45v-.2h.49v-.16h-.68v.91h.7v-.15h-.51V31z" />
    </symbol>
    <symbol id="icon-close-black" viewBox="0 0 32 32">
<path d="M32 3.224l-3.224-3.224-12.776 12.776-12.776-12.776-3.224 3.224 12.776 12.776-12.776 12.776 3.224 3.224 12.776-12.776 12.776 12.776 3.224-3.224-12.776-12.776 12.776-12.776z"></path>
</symbol>
<symbol id="icon-phone-black-18dp-1-1" viewBox="0 0 24 32">
<path d="M19.635 18.487l-2.451-0.28c-0.067-0.008-0.145-0.013-0.223-0.013-0.531 0-1.012 0.215-1.36 0.564l-1.775 1.775c-2.752-1.42-4.94-3.607-6.322-6.278l-0.038-0.081 1.787-1.785c0.347-0.347 0.562-0.827 0.562-1.358 0-0.079-0.005-0.156-0.014-0.233l0.001 0.009-0.28-2.432c-0.115-0.966-0.93-1.708-1.918-1.708-0.001 0-0.002 0-0.002 0h-1.669c-1.091 0-1.997 0.907-1.929 1.997 0.511 8.24 7.101 14.821 15.332 15.333 1.091 0.067 1.997-0.84 1.997-1.931v-1.669c0-0.003 0-0.007 0-0.011 0-0.981-0.739-1.789-1.69-1.899l-0.009-0.001z"></path>
</symbol>
<symbol id="icon-email-black-18dp-1-1" viewBox="0 0 24 32">
<path d="M20 8h-16c-1.1 0-1.989 0.9-1.989 2l-0.011 12c0 1.1 0.9 2 2 2h16c1.1 0 2-0.9 2-2v-12c0-1.1-0.9-2-2-2zM19.6 12.251l-7.069 4.419c-0.151 0.094-0.334 0.15-0.531 0.15s-0.38-0.056-0.535-0.153l0.004 0.002-7.069-4.419c-0.252-0.15-0.418-0.422-0.418-0.731 0-0.469 0.38-0.849 0.849-0.849 0.174 0 0.337 0.053 0.471 0.143l6.697 4.187 6.7-4.191c0.132-0.088 0.294-0.141 0.468-0.141 0.469 0 0.849 0.38 0.849 0.849 0 0.31-0.166 0.581-0.414 0.729l-0.004 0.002z"></path>
</symbol>
<symbol id="icon-person-black-18dp-1-1" viewBox="0 0 32 32">
<path d="M16 16c2.946 0 5.333-2.388 5.333-5.333s-2.388-5.333-5.333-5.333v0c-2.946 0-5.333 2.388-5.333 5.333s2.388 5.333 5.333 5.333v0zM16 18.667c-3.561 0-10.667 1.787-10.667 5.333v1.333c0 0.732 0.599 1.333 1.333 1.333h18.667c0.732 0 1.333-0.601 1.333-1.333v-1.333c0-3.547-7.108-5.333-10.667-5.333z"></path>
</symbol>
<symbol id="icon-icon-send-1" viewBox="0 0 38 32">
<path  d="M38.4 0l-38.4 18 12.272 3.787 18.928-14.787-14.397 16.186 0.011 0.005-0.014-0.005v8.814l6.882-6.691 8.72 2.691 5.998-28z"></path>
</symbol>


<symbol id="icon-close-back" viewBox="0 0 32 32">
<path d="M32 3.224l-3.224-3.224-12.776 12.776-12.776-12.776-3.224 3.224 12.776 12.776-12.776 12.776 3.224 3.224 12.776-12.776 12.776 12.776 3.224-3.224-12.776-12.776 12.776-12.776z"></path>
</symbol>
<symbol id="burger-icon" viewBox="0 0 47 32">
<path d="M-0.221 2.077c0-1.205 0.977-2.182 2.182-2.182h42.965c1.205 0 2.182 0.977 2.182 2.182s-0.977 2.182-2.182 2.182h-42.965c-1.205 0-2.182-0.977-2.182-2.182zM-0.221 15.615c0-1.205 0.977-2.182 2.182-2.182h42.965c1.205 0 2.182 0.977 2.182 2.182s-0.977 2.182-2.182 2.182h-42.965c-1.205 0-2.182-0.977-2.182-2.182zM-0.221 29.154c0-1.205 0.977-2.182 2.182-2.182h42.965c1.205 0 2.182 0.977 2.182 2.182s-0.977 2.182-2.182 2.182h-42.965c-1.205 0-2.182-0.977-2.182-2.182z"></path>
</symbol>


</defs>
  </defs>
</svg>
