<svg xmlns="http://www.w3.org/2000/svg" width="104" height="56" fill="none">
  <path fill="#8E8F99" d="M53.53 27.44a2.95 2.95 0 0 1-.6-1.99v-2.89c0-.88.2-1.55.6-2.02.4-.46 1.09-.68 2.07-.68.92 0 1.57.2 1.95.58.42.5.63 1.12.58 1.73v.68H56.5v-.69c0-.22-.01-.45-.05-.67a.65.65 0 0 0-.23-.4.95.95 0 0 0-.6-.15 1 1 0 0 0-.63.16.77.77 0 0 0-.27.44c-.05.24-.07.48-.06.71v3.51c-.03.34.04.68.2.98.09.1.2.2.34.24a.9.9 0 0 0 .42.06.9.9 0 0 0 .58-.16.7.7 0 0 0 .25-.43c.04-.23.05-.46.05-.7v-.71h1.64v.65c.05.64-.15 1.28-.57 1.81-.37.43-1.02.65-1.96.65-.95 0-1.67-.23-2.07-.7ZM60.38 27.47c-.42-.45-.63-1.1-.63-1.97v-3.04c0-.85.21-1.5.63-1.94.41-.45 1.1-.66 2.08-.66.97 0 1.66.22 2.07.66.42.44.63 1.09.63 1.94v3.04c0 .86-.21 1.52-.63 1.97-.43.45-1.11.68-2.07.68-.96 0-1.66-.23-2.08-.68Zm2.85-.73c.14-.28.21-.59.2-.9v-3.71c.01-.3-.05-.61-.2-.89a.78.78 0 0 0-.34-.24.9.9 0 0 0-.43-.05.92.92 0 0 0-.43.05.79.79 0 0 0-.34.24c-.15.28-.22.58-.2.89v3.73c-.02.31.05.62.2.9.1.1.21.17.34.22a1.16 1.16 0 0 0 .85 0c.13-.05.25-.12.35-.22v-.02ZM67.14 19.95h1.77l1.33 5.6 1.36-5.6h1.72l.18 8.09h-1.28l-.13-5.63-1.32 5.63h-1.02l-1.36-5.65-.13 5.65h-1.28l.16-8.1ZM75.48 19.95h2.76c1.59 0 2.38.76 2.38 2.3 0 1.46-.83 2.2-2.5 2.2h-.95v3.59h-1.7l.01-8.1Zm2.36 3.45c.17.02.34 0 .5-.04.16-.04.31-.11.44-.21.19-.28.28-.6.24-.92 0-.24-.02-.49-.08-.73a.6.6 0 0 0-.13-.22.7.7 0 0 0-.21-.16c-.24-.1-.5-.15-.76-.13h-.66v2.41h.66ZM83.08 19.95h1.83l1.87 8.09H85.2l-.37-1.87h-1.64l-.38 1.87h-1.6l1.87-8.1Zm1.56 5.28-.64-3.4-.63 3.4h1.27ZM88.3 19.95h1.19l2.28 4.61v-4.61h1.41v8.09h-1.13l-2.3-4.82v4.82H88.3v-8.1ZM96.5 24.95l-1.9-5h1.6l1.15 3.22 1.09-3.21H100l-1.87 5v3.08h-1.64v-3.09ZM56.16 31.57V32h-1.4v3.28h-.57V32h-1.4v-.43h3.37ZM60.51 35.28h-.45a.2.2 0 0 1-.12-.03.2.2 0 0 1-.08-.09l-.4-.88h-1.93l-.4.88a.24.24 0 0 1-.06.1.2.2 0 0 1-.13.04h-.45l1.7-3.71h.6l1.72 3.7Zm-2.82-1.37h1.61l-.68-1.51a2.7 2.7 0 0 1-.13-.35l-.06.2-.06.15-.68 1.5ZM63.45 34.92h.32a1.93 1.93 0 0 0 .51-.11l.23-.1v-.83H63.78a.13.13 0 0 1-.04-.03.09.09 0 0 1-.03-.03V33.5h1.32v1.42a2.57 2.57 0 0 1-1.15.38c-.16.02-.33.03-.5.03-.29 0-.58-.05-.85-.14a2.1 2.1 0 0 1-.68-.39 1.8 1.8 0 0 1-.44-.59c-.1-.24-.16-.5-.16-.77a1.7 1.7 0 0 1 .6-1.36c.19-.17.42-.3.67-.39a2.86 2.86 0 0 1 1.39-.1 2.33 2.33 0 0 1 .75.24c.1.06.2.12.3.2l-.17.22a.14.14 0 0 1-.06.05.17.17 0 0 1-.07.02.22.22 0 0 1-.11-.03 2.1 2.1 0 0 1-.17-.08 2.14 2.14 0 0 0-.97-.21c-.22-.01-.45.02-.66.1a1.3 1.3 0 0 0-.82.76c-.15.4-.15.82 0 1.23.08.17.2.33.35.46a1.45 1.45 0 0 0 1.17.37ZM68.87 34.86h1.86v.42h-2.42v-3.7h.58l-.02 3.28ZM72.67 35.28h-.59v-3.7h.59v3.7ZM74.83 31.6c.04 0 .07.03.1.06l2.48 2.8V31.56h.5v3.72h-.29c-.04 0-.08 0-.12-.02a.33.33 0 0 1-.1-.07l-2.48-2.8v2.89h-.49v-3.7h.3l.1.01ZM82.2 31.57v.41h-2.06v1.23h1.67v.4h-1.67v1.26h2.06v.4h-2.66v-3.7h2.66ZM21.2 8.66l25.85 6.33v22.2L21.2 30.86V8.66Zm-1.66-1.9v25.18l29.16 7.14V13.92L19.54 6.77Z"/>
  <path fill="#8E8F99" d="M35.17 50.77 6 43.6V18.45l29.17 7.15v25.17Z"/>
  <path fill="#8E8F99" d="m20.02 8.37 25.52 6.26-10.86 9.36-25.51-6.25 10.85-9.37Zm-.48-1.6L6 18.45l29.17 7.15L48.7 13.92 19.54 6.77ZM36.8 49.35 48.7 39.1l-11.9-2.92v13.18Z"/>
</svg>
